<svg xmlns="http://www.w3.org/2000/svg" xmlns:xlink="http://www.w3.org/1999/xlink" width="1084" zoomAndPan="magnify" viewBox="0 0 812.88 431.999984" height="576" preserveAspectRatio="xMidYMid meet" version="1.0"><defs><g/><clipPath id="6c70f80dc9"><rect x="0" width="550" y="0" height="188"/></clipPath><clipPath id="c6be6d7bea"><rect x="0" width="186" y="0" height="185"/></clipPath></defs><g transform="matrix(1, 0, 0, 1, 28, 119)"><g clip-path="url(#6c70f80dc9)"><g fill="#b4b4b4" fill-opacity="1"><g transform="translate(0.183587, 143.036992)"><g><path d="M 95.453125 -113.84375 C 95.453125 -112.875 95.085938 -112.023438 94.359375 -111.296875 C 93.628906 -110.566406 92.78125 -110.203125 91.8125 -110.203125 L 54.828125 -110.203125 C 50.578125 -110.203125 47.570312 -109.320312 45.8125 -107.5625 C 44.050781 -105.800781 43.171875 -102.550781 43.171875 -97.8125 L 43.171875 -81.421875 L 90.34375 -81.421875 C 91.320312 -81.421875 92.175781 -81.054688 92.90625 -80.328125 C 93.632812 -79.597656 94 -78.75 94 -77.78125 L 94 -60.46875 C 94 -59.5 93.632812 -58.648438 92.90625 -57.921875 C 92.175781 -57.191406 91.320312 -56.828125 90.34375 -56.828125 L 43.171875 -56.828125 L 43.171875 -3.640625 C 43.171875 -2.671875 42.804688 -1.820312 42.078125 -1.09375 C 41.347656 -0.363281 40.5 0 39.53125 0 L 15.84375 0 C 14.875 0 14.023438 -0.363281 13.296875 -1.09375 C 12.566406 -1.820312 12.203125 -2.671875 12.203125 -3.640625 L 12.203125 -97.8125 C 12.203125 -106.070312 13.382812 -112.78125 15.75 -117.9375 C 18.125 -123.101562 21.40625 -127.050781 25.59375 -129.78125 C 29.78125 -132.519531 34.546875 -134.375 39.890625 -135.34375 C 45.234375 -136.3125 50.820312 -136.796875 56.65625 -136.796875 C 66.488281 -136.796875 74.015625 -136.519531 79.234375 -135.96875 C 84.460938 -135.425781 88.65625 -134.914062 91.8125 -134.4375 C 94.238281 -134.070312 95.453125 -132.851562 95.453125 -130.78125 Z M 95.453125 -113.84375 "/></g></g></g><g fill="#b4b4b4" fill-opacity="1"><g transform="translate(100.549507, 143.036992)"><g><path d="M 99.28125 -47.359375 C 99.28125 -44.441406 98.003906 -42.984375 95.453125 -42.984375 L 37.34375 -42.984375 L 37.34375 -42.625 C 37.34375 -39.226562 37.914062 -36.007812 39.0625 -32.96875 C 40.21875 -29.9375 42.160156 -27.476562 44.890625 -25.59375 C 47.628906 -23.707031 51.367188 -22.765625 56.109375 -22.765625 C 59.992188 -22.765625 64.179688 -22.851562 68.671875 -23.03125 C 73.160156 -23.21875 77.410156 -23.429688 81.421875 -23.671875 C 85.429688 -23.921875 88.648438 -24.164062 91.078125 -24.40625 C 91.203125 -24.40625 91.289062 -24.40625 91.34375 -24.40625 C 91.40625 -24.40625 91.5 -24.40625 91.625 -24.40625 C 93.925781 -24.40625 95.078125 -23.4375 95.078125 -21.5 L 95.078125 -7.65625 C 95.078125 -6.195312 94.832031 -5.101562 94.34375 -4.375 C 93.863281 -3.644531 92.835938 -3.097656 91.265625 -2.734375 C 85.429688 -1.273438 79.722656 -0.179688 74.140625 0.546875 C 68.554688 1.273438 61.816406 1.640625 53.921875 1.640625 C 48.453125 1.640625 43.015625 0.851562 37.609375 -0.71875 C 32.210938 -2.300781 27.296875 -4.914062 22.859375 -8.5625 C 18.429688 -12.207031 14.878906 -17.035156 12.203125 -23.046875 C 9.535156 -29.054688 8.203125 -36.429688 8.203125 -45.171875 L 8.203125 -57.921875 C 8.203125 -72.617188 12.269531 -84.273438 20.40625 -92.890625 C 28.539062 -101.515625 39.832031 -105.828125 54.28125 -105.828125 C 64.238281 -105.828125 72.554688 -103.734375 79.234375 -99.546875 C 85.910156 -95.359375 90.921875 -89.679688 94.265625 -82.515625 C 97.609375 -75.347656 99.28125 -67.148438 99.28125 -57.921875 Z M 70.5 -61.203125 L 70.5 -61.9375 C 70.5 -68.738281 69.039062 -73.804688 66.125 -77.140625 C 63.207031 -80.484375 59.195312 -82.15625 54.09375 -82.15625 C 49.113281 -82.15625 45.078125 -80.453125 41.984375 -77.046875 C 38.890625 -73.648438 37.34375 -68.613281 37.34375 -61.9375 L 37.34375 -61.203125 Z M 70.5 -61.203125 "/></g></g></g><g fill="#b4b4b4" fill-opacity="1"><g transform="translate(208.019564, 143.036992)"><g><path d="M 99.640625 -3.828125 C 99.640625 -2.859375 99.304688 -1.976562 98.640625 -1.1875 C 97.972656 -0.394531 97.148438 0 96.171875 0 L 73.765625 0 C 72.796875 0 71.945312 -0.394531 71.21875 -1.1875 C 70.488281 -1.976562 70.125 -2.859375 70.125 -3.828125 L 70.125 -67.9375 C 70.125 -71.945312 69.515625 -75.226562 68.296875 -77.78125 C 67.085938 -80.332031 64.117188 -81.609375 59.390625 -81.609375 L 50.28125 -81.609375 C 45.539062 -81.609375 42.5625 -80.332031 41.34375 -77.78125 C 40.132812 -75.226562 39.53125 -71.945312 39.53125 -67.9375 L 39.53125 -3.828125 C 39.53125 -2.859375 39.164062 -1.976562 38.4375 -1.1875 C 37.707031 -0.394531 36.859375 0 35.890625 0 L 13.484375 0 C 12.503906 0 11.679688 -0.394531 11.015625 -1.1875 C 10.347656 -1.976562 10.015625 -2.859375 10.015625 -3.828125 L 10.015625 -67.9375 C 10.015625 -80.570312 13.445312 -90.046875 20.3125 -96.359375 C 27.175781 -102.671875 37.164062 -105.828125 50.28125 -105.828125 L 59.390625 -105.828125 C 72.503906 -105.828125 82.488281 -102.671875 89.34375 -96.359375 C 96.207031 -90.046875 99.640625 -80.570312 99.640625 -67.9375 Z M 99.640625 -3.828125 "/></g></g></g><g fill="#b4b4b4" fill-opacity="1"><g transform="translate(317.675436, 143.036992)"><g><path d="M 99.28125 -45.71875 C 99.28125 -31.269531 95.390625 -19.765625 87.609375 -11.203125 C 79.835938 -2.640625 68.546875 1.640625 53.734375 1.640625 C 39.035156 1.640625 27.738281 -2.640625 19.84375 -11.203125 C 11.957031 -19.765625 8.015625 -31.269531 8.015625 -45.71875 L 8.015625 -58.46875 C 8.015625 -72.925781 11.957031 -84.429688 19.84375 -92.984375 C 27.738281 -101.546875 39.035156 -105.828125 53.734375 -105.828125 C 68.546875 -105.828125 79.835938 -101.546875 87.609375 -92.984375 C 95.390625 -84.429688 99.28125 -72.925781 99.28125 -58.46875 Z M 69.953125 -45.71875 L 69.953125 -58.46875 C 69.953125 -73.28125 64.546875 -80.6875 53.734375 -80.6875 C 42.804688 -80.6875 37.34375 -73.28125 37.34375 -58.46875 L 37.34375 -45.71875 C 37.34375 -30.78125 42.804688 -23.3125 53.734375 -23.3125 C 64.546875 -23.3125 69.953125 -30.78125 69.953125 -45.71875 Z M 69.953125 -45.71875 "/></g></g></g><g fill="#b4b4b4" fill-opacity="1"><g transform="translate(424.96335, 143.036992)"><g><path d="M 65.390625 -84.703125 C 65.390625 -82.390625 63.75 -81.234375 60.46875 -81.234375 C 58.769531 -81.234375 56.582031 -81.203125 53.90625 -81.140625 C 51.238281 -81.085938 48.660156 -80.96875 46.171875 -80.78125 C 43.679688 -80.601562 41.769531 -80.394531 40.4375 -80.15625 L 40.4375 -3.828125 C 40.4375 -2.859375 40.070312 -1.976562 39.34375 -1.1875 C 38.613281 -0.394531 37.765625 0 36.796875 0 L 14.75 0 C 13.78125 0 12.898438 -0.394531 12.109375 -1.1875 C 11.316406 -1.976562 10.921875 -2.859375 10.921875 -3.828125 L 10.921875 -94.71875 C 10.921875 -96.050781 11.347656 -97.171875 12.203125 -98.078125 C 13.054688 -98.992188 14.515625 -99.816406 16.578125 -100.546875 C 22.398438 -102.492188 29.015625 -103.859375 36.421875 -104.640625 C 43.835938 -105.429688 51.851562 -105.828125 60.46875 -105.828125 C 61.5625 -105.828125 62.65625 -105.582031 63.75 -105.09375 C 64.84375 -104.613281 65.390625 -103.707031 65.390625 -102.375 Z M 65.390625 -84.703125 "/></g></g></g><g fill="#b4b4b4" fill-opacity="1"><g transform="translate(494.545672, 143.036992)"><g><path d="M 41.890625 -119.859375 C 41.890625 -118.890625 41.523438 -118.039062 40.796875 -117.3125 C 40.066406 -116.582031 39.21875 -116.21875 38.25 -116.21875 L 14.578125 -116.21875 C 13.597656 -116.21875 12.742188 -116.582031 12.015625 -117.3125 C 11.285156 -118.039062 10.921875 -118.890625 10.921875 -119.859375 L 10.921875 -136.796875 C 10.921875 -137.765625 11.285156 -138.613281 12.015625 -139.34375 C 12.742188 -140.070312 13.597656 -140.4375 14.578125 -140.4375 L 38.25 -140.4375 C 39.21875 -140.4375 40.066406 -140.070312 40.796875 -139.34375 C 41.523438 -138.613281 41.890625 -137.765625 41.890625 -136.796875 Z M 41.171875 -3.640625 C 41.171875 -2.671875 40.804688 -1.820312 40.078125 -1.09375 C 39.347656 -0.363281 38.5 0 37.53125 0 L 15.296875 0 C 14.328125 0 13.476562 -0.363281 12.75 -1.09375 C 12.019531 -1.820312 11.65625 -2.671875 11.65625 -3.640625 L 11.65625 -100.734375 C 11.65625 -101.703125 12.019531 -102.550781 12.75 -103.28125 C 13.476562 -104.007812 14.328125 -104.375 15.296875 -104.375 L 37.53125 -104.375 C 38.5 -104.375 39.347656 -104.007812 40.078125 -103.28125 C 40.804688 -102.550781 41.171875 -101.703125 41.171875 -100.734375 Z M 41.171875 -3.640625 "/></g></g></g></g></g><g transform="matrix(1, 0, 0, 1, 600, 122)"><g clip-path="url(#c6be6d7bea)"><g fill="#545454" fill-opacity="1"><g transform="translate(0.896405, 140.036992)"><g><path d="M 43.90625 -3.640625 C 43.90625 -2.671875 43.566406 -1.820312 42.890625 -1.09375 C 42.222656 -0.363281 41.40625 0 40.4375 0 L 16.03125 0 C 15.0625 0 14.269531 -0.363281 13.65625 -1.09375 C 13.050781 -1.820312 12.75 -2.671875 12.75 -3.640625 L 12.75 -131.875 C 12.75 -134.1875 13.84375 -135.34375 16.03125 -135.34375 L 40.4375 -135.34375 C 42.75 -135.34375 43.90625 -134.1875 43.90625 -131.875 Z M 43.90625 -3.640625 "/></g></g></g><g fill="#545454" fill-opacity="1"><g transform="translate(57.545865, 140.036992)"><g><path d="M 117.484375 -56.828125 C 117.484375 -42.742188 115.082031 -31.421875 110.28125 -22.859375 C 105.488281 -14.296875 99.023438 -8.070312 90.890625 -4.1875 C 82.753906 -0.300781 73.648438 1.640625 63.578125 1.640625 C 53.617188 1.640625 44.539062 -0.300781 36.34375 -4.1875 C 28.144531 -8.070312 21.644531 -14.296875 16.84375 -22.859375 C 12.050781 -31.421875 9.65625 -42.742188 9.65625 -56.828125 L 9.65625 -78.515625 C 9.65625 -92.597656 12.050781 -103.921875 16.84375 -112.484375 C 21.644531 -121.046875 28.144531 -127.269531 36.34375 -131.15625 C 44.539062 -135.039062 53.617188 -136.984375 63.578125 -136.984375 C 73.648438 -136.984375 82.753906 -135.039062 90.890625 -131.15625 C 99.023438 -127.269531 105.488281 -121.046875 110.28125 -112.484375 C 115.082031 -103.921875 117.484375 -92.597656 117.484375 -78.515625 Z M 86.15625 -56.828125 L 86.15625 -78.515625 C 86.15625 -89.441406 84.300781 -97.363281 80.59375 -102.28125 C 76.894531 -107.195312 71.222656 -109.65625 63.578125 -109.65625 C 55.921875 -109.65625 50.269531 -107.195312 46.625 -102.28125 C 42.988281 -97.363281 41.171875 -89.441406 41.171875 -78.515625 L 41.171875 -56.828125 C 41.171875 -45.898438 42.988281 -37.976562 46.625 -33.0625 C 50.269531 -28.144531 55.921875 -25.6875 63.578125 -25.6875 C 71.222656 -25.6875 76.894531 -28.144531 80.59375 -33.0625 C 84.300781 -37.976562 86.15625 -45.898438 86.15625 -56.828125 Z M 86.15625 -56.828125 "/></g></g></g></g></g></svg>